<?xml version="1.0" encoding="UTF-8"?>
<svg id="Layer_2" data-name="Layer 2" xmlns="http://www.w3.org/2000/svg" viewBox="0 0 1768.82 1380.58">
  <defs>
    <style>
      .cls-1 {
        fill: #000;
        font-family: FuturaPT-Light, 'Futura PT';
        font-size: 36.85px;
        font-weight: 300;
      }
    </style>
  </defs>
  <g id="Graphic">
    <text class="cls-1" transform="translate(13.08 120.87) rotate(90.95)"><tspan x="0" y="0">w</tspan></text>
    <text class="cls-1" transform="translate(12.67 145.43) rotate(90.91)"><tspan x="0" y="0">e</tspan></text>
    <text class="cls-1" transform="translate(12.39 163.11) rotate(90.88)"><tspan x="0" y="0">l</tspan></text>
    <text class="cls-1" transform="translate(12.29 169.84) rotate(90.86)"><tspan x="0" y="0">c</tspan></text>
    <text class="cls-1" transform="translate(12.05 185.98) rotate(90.82)"><tspan x="0" y="0">o</tspan></text>
    <text class="cls-1" transform="translate(11.77 205.01) rotate(90.78)"><tspan x="0" y="0">m</tspan></text>
    <text class="cls-1" transform="translate(11.45 228.86) rotate(90.74)"><tspan x="0" y="0">e</tspan></text>
    <text class="cls-1" transform="translate(11.22 246.51) rotate(90.71)"><tspan x="0" y="0"> </tspan></text>
    <text class="cls-1" transform="translate(11.12 255.02) rotate(90.7)"><tspan x="0" y="0">t</tspan></text>
    <text class="cls-1" transform="translate(11.03 262.11) rotate(90.67)"><tspan x="0" y="0">o</tspan></text>
    <text class="cls-1" transform="translate(10.81 281.14) rotate(90.64)"><tspan x="0" y="0"> </tspan></text>
    <text class="cls-1" transform="translate(10.71 289.66) rotate(90.61)"><tspan x="0" y="0">m</tspan></text>
    <text class="cls-1" transform="translate(10.46 313.5) rotate(90.56)"><tspan x="0" y="0">y</tspan></text>
    <text class="cls-1" transform="translate(10.31 329.15) rotate(90.54)"><tspan x="0" y="0"> </tspan></text>
    <text class="cls-1" transform="translate(10.22 337.67) rotate(90.51)"><tspan x="0" y="0">p</tspan></text>
    <text class="cls-1" transform="translate(10.06 356.53) rotate(90.47)"><tspan x="0" y="0">o</tspan></text>
    <text class="cls-1" transform="translate(9.9 375.54) rotate(90.43)"><tspan x="0" y="0">r</tspan></text>
    <text class="cls-1" transform="translate(9.83 385.06) rotate(90.41)"><tspan x="0" y="0">t</tspan></text>
    <text class="cls-1" transform="translate(9.78 392.53) rotate(90.4)"><tspan x="0" y="0">f</tspan></text>
    <text class="cls-1" transform="translate(9.72 400.35) rotate(90.36)"><tspan x="0" y="0">o</tspan></text>
    <text class="cls-1" transform="translate(9.6 419.37) rotate(90.33)"><tspan x="0" y="0">l</tspan></text>
    <text class="cls-1" transform="translate(9.56 426.08) rotate(90.32)"><tspan x="0" y="0">i</tspan></text>
    <text class="cls-1" transform="translate(9.53 432.82) rotate(90.28)"><tspan x="0" y="0">o</tspan></text>
    <text class="cls-1" transform="translate(9.43 451.85) rotate(90.25)"><tspan x="0" y="0"> </tspan></text>
    <text class="cls-1" transform="translate(9.39 460.36) rotate(90.21)"><tspan x="0" y="0">w</tspan></text>
    <text class="cls-1" transform="translate(9.3 484.93) rotate(90.15)"><tspan x="0" y="0">e</tspan></text>
    <text class="cls-1" transform="translate(9.26 502.6) rotate(90.12)"><tspan x="0" y="0">l</tspan></text>
    <text class="cls-1" transform="translate(9.24 509.33) rotate(90.08)"><tspan x="0" y="0">c</tspan></text>
    <text class="cls-1" transform="translate(9.22 525.47) rotate(90.03)"><tspan x="0" y="0">o</tspan></text>
    <text class="cls-1" transform="translate(9.21 544.51) rotate(89.97)"><tspan x="0" y="0">m</tspan></text>
    <text class="cls-1" transform="translate(9.22 568.33) rotate(89.9)"><tspan x="0" y="0">e</tspan></text>
    <text class="cls-1" transform="translate(9.25 586.02) rotate(89.86)"><tspan x="0" y="0"> </tspan></text>
    <text class="cls-1" transform="translate(9.27 594.53) rotate(89.84)"><tspan x="0" y="0">t</tspan></text>
    <text class="cls-1" transform="translate(9.29 601.61) rotate(89.79)"><tspan x="0" y="0">o</tspan></text>
    <text class="cls-1" transform="translate(9.36 620.63) rotate(89.74)"><tspan x="0" y="0"> </tspan></text>
    <text class="cls-1" transform="translate(9.4 629.14) rotate(89.69)"><tspan x="0" y="0">m</tspan></text>
    <text class="cls-1" transform="translate(9.53 652.97) rotate(89.61)"><tspan x="0" y="0">y</tspan></text>
    <text class="cls-1" transform="translate(9.64 668.63) rotate(89.56)"><tspan x="0" y="0"> </tspan></text>
    <text class="cls-1" transform="translate(9.7 677.16) rotate(89.51)"><tspan x="0" y="0">p</tspan></text>
    <text class="cls-1" transform="translate(9.86 696.01) rotate(89.43)"><tspan x="0" y="0">o</tspan></text>
    <text class="cls-1" transform="translate(10.06 715.03) rotate(89.36)"><tspan x="0" y="0">r</tspan></text>
    <text class="cls-1" transform="translate(10.16 724.53) rotate(89.33)"><tspan x="0" y="0">t</tspan></text>
    <text class="cls-1" transform="translate(10.25 732) rotate(89.29)"><tspan x="0" y="0">f</tspan></text>
    <text class="cls-1" transform="translate(10.34 739.81) rotate(89.22)"><tspan x="0" y="0">o</tspan></text>
    <text class="cls-1" transform="translate(10.6 758.85) rotate(89.16)"><tspan x="0" y="0">l</tspan></text>
    <text class="cls-1" transform="translate(10.7 765.57) rotate(89.12)"><tspan x="0" y="0">i</tspan></text>
    <text class="cls-1" transform="translate(10.8 772.28) rotate(89.06)"><tspan x="0" y="0">o</tspan></text>
    <text class="cls-1" transform="translate(11.12 791.29) rotate(88.98)"><tspan x="0" y="0"> </tspan></text>
    <text class="cls-1" transform="translate(11.26 799.79) rotate(88.88)"><tspan x="0" y="0">w</tspan></text>
    <text class="cls-1" transform="translate(11.75 824.38) rotate(88.75)"><tspan x="0" y="0">e</tspan></text>
    <text class="cls-1" transform="translate(12.14 842.03) rotate(88.66)"><tspan x="0" y="0">l</tspan></text>
    <text class="cls-1" transform="translate(12.29 848.75) rotate(88.58)"><tspan x="0" y="0">c</tspan></text>
    <text class="cls-1" transform="translate(12.69 864.89) rotate(88.45)"><tspan x="0" y="0">o</tspan></text>
    <text class="cls-1" transform="translate(13.2 883.87) rotate(88.27)"><tspan x="0" y="0">m</tspan></text>
    <text class="cls-1" transform="translate(13.92 907.69) rotate(88.09)"><tspan x="0" y="0">e</tspan></text>
    <text class="cls-1" transform="translate(14.52 925.36) rotate(87.96)"><tspan x="0" y="0"> </tspan></text>
    <text class="cls-1" transform="translate(14.82 933.85) rotate(87.88)"><tspan x="0" y="0">t</tspan></text>
    <text class="cls-1" transform="translate(14.81 941.14) rotate(86.08)"><tspan x="0" y="0">o</tspan></text>
    <text class="cls-1" transform="translate(15.97 960.52) rotate(85.41)"><tspan x="0" y="0"> </tspan></text>
    <text class="cls-1" transform="translate(16.54 969.82) rotate(82.55)"><tspan x="0" y="0">m</tspan></text>
    <text class="cls-1" transform="translate(19.93 994.47) rotate(78.8)"><tspan x="0" y="0">y</tspan></text>
    <text class="cls-1" transform="translate(23.19 1010.47) rotate(76.36)"><tspan x="0" y="0"> </tspan></text>
    <text class="cls-1" transform="translate(25.27 1019.53) rotate(73.48)"><tspan x="0" y="0">p</tspan></text>
    <text class="cls-1" transform="translate(31 1038.74) rotate(69.31)"><tspan x="0" y="0">o</tspan></text>
    <text class="cls-1" transform="translate(38.17 1057.29) rotate(66.07)"><tspan x="0" y="0">r</tspan></text>
    <text class="cls-1" transform="translate(42.28 1066.46) rotate(64.14)"><tspan x="0" y="0">t</tspan></text>
    <text class="cls-1" transform="translate(45.75 1073.61) rotate(62.31)"><tspan x="0" y="0">f</tspan></text>
    <text class="cls-1" transform="translate(49.69 1081.39) rotate(59.15)"><tspan x="0" y="0">o</tspan></text>
    <text class="cls-1" transform="translate(60.01 1098.32) rotate(56.12)"><tspan x="0" y="0">l</tspan></text>
    <text class="cls-1" transform="translate(64.01 1104.25) rotate(54.55)"><tspan x="0" y="0">i</tspan></text>
    <text class="cls-1" transform="translate(68.28 1110.5) rotate(51.56)"><tspan x="0" y="0">o</tspan></text>
    <text class="cls-1" transform="translate(80.77 1125.96) rotate(48.44)"><tspan x="0" y="0"> </tspan></text>
    <text class="cls-1" transform="translate(86.93 1133.24) rotate(44.82)"><tspan x="0" y="0">w</tspan></text>
    <text class="cls-1" transform="translate(105.35 1151.28) rotate(40.43)"><tspan x="0" y="0">e</tspan></text>
    <text class="cls-1" transform="translate(119.36 1163.05) rotate(38.04)"><tspan x="0" y="0">l</tspan></text>
    <text class="cls-1" transform="translate(125.09 1167.63) rotate(35.89)"><tspan x="0" y="0">c</tspan></text>
    <text class="cls-1" transform="translate(138.87 1177.61) rotate(32.78)"><tspan x="0" y="0">o</tspan></text>
    <text class="cls-1" transform="translate(155.64 1188.45) rotate(29.28)"><tspan x="0" y="0">m</tspan></text>
    <text class="cls-1" transform="translate(177.25 1200.43) rotate(26.18)"><tspan x="0" y="0">e</tspan></text>
    <text class="cls-1" transform="translate(193.57 1208.36) rotate(24.37)"><tspan x="0" y="0"> </tspan></text>
    <text class="cls-1" transform="translate(201.59 1211.99) rotate(23.34)"><tspan x="0" y="0">t</tspan></text>
    <text class="cls-1" transform="translate(208.49 1215.05) rotate(21.68)"><tspan x="0" y="0">o</tspan></text>
    <text class="cls-1" transform="translate(226.62 1222.17) rotate(20.04)"><tspan x="0" y="0"> </tspan></text>
    <text class="cls-1" transform="translate(235.05 1225.36) rotate(18.22)"><tspan x="0" y="0">m</tspan></text>
    <text class="cls-1" transform="translate(258.27 1232.91) rotate(16.16)"><tspan x="0" y="0">y</tspan></text>
    <text class="cls-1" transform="translate(273.63 1237.32) rotate(14.98)"><tspan x="0" y="0"> </tspan></text>
    <text class="cls-1" transform="translate(281.91 1239.59) rotate(13.72)"><tspan x="0" y="0">p</tspan></text>
    <text class="cls-1" transform="translate(300.07 1244.03) rotate(12.1)"><tspan x="0" y="0">o</tspan></text>
    <text class="cls-1" transform="translate(318.56 1247.94) rotate(10.95)"><tspan x="0" y="0">r</tspan></text>
    <text class="cls-1" transform="translate(327.84 1249.73) rotate(10.3)"><tspan x="0" y="0">t</tspan></text>
    <text class="cls-1" transform="translate(335.1 1251.05) rotate(9.7)"><tspan x="0" y="0">f</tspan></text>
    <text class="cls-1" transform="translate(342.72 1252.4) rotate(8.71)"><tspan x="0" y="0">o</tspan></text>
    <text class="cls-1" transform="translate(361.44 1255.22) rotate(7.78)"><tspan x="0" y="0">l</tspan></text>
    <text class="cls-1" transform="translate(368.03 1256.12) rotate(7.32)"><tspan x="0" y="0">i</tspan></text>
    <text class="cls-1" transform="translate(374.62 1257.01) rotate(6.44)"><tspan x="0" y="0">o</tspan></text>
    <text class="cls-1" transform="translate(393.43 1259.09) rotate(5.52)"><tspan x="0" y="0"> </tspan></text>
    <text class="cls-1" transform="translate(401.8 1259.98) rotate(4.45)"><tspan x="0" y="0">w</tspan></text>
    <text class="cls-1" transform="translate(426.15 1261.83) rotate(3.12)"><tspan x="0" y="0">e</tspan></text>
    <text class="cls-1" transform="translate(443.73 1262.76) rotate(2.37)"><tspan x="0" y="0">l</tspan></text>
    <text class="cls-1" transform="translate(450.38 1263.06) rotate(1.66)"><tspan x="0" y="0">c</tspan></text>
    <text class="cls-1" transform="translate(466.41 1263.54) rotate(.56)"><tspan x="0" y="0">o</tspan></text>
    <text class="cls-1" transform="translate(485.29 1263.76) rotate(-.84)"><tspan x="0" y="0">m</tspan></text>
    <text class="cls-1" transform="translate(508.95 1263.38) rotate(-2.41)"><tspan x="0" y="0">e</tspan></text>
    <text class="cls-1" transform="translate(526.96 1262.58) rotate(-3.94)"><tspan x="0" y="0"> </tspan></text>
    <text class="cls-1" transform="translate(533.29 1261.82) rotate(43.49)"><tspan x="0" y="0">t</tspan><tspan x="7.14" y=".22">o</tspan></text>
    <text class="cls-1" transform="translate(552.26 1280.11) rotate(42.5)"><tspan x="0" y="0"> </tspan></text>
    <text class="cls-1" transform="translate(558.81 1286.27) rotate(40.75)"><tspan x="0" y="0">m</tspan></text>
    <text class="cls-1" transform="translate(577.43 1302.19) rotate(38.34)"><tspan x="0" y="0">y</tspan></text>
    <text class="cls-1" transform="translate(590.1 1312.14) rotate(36.7)"><tspan x="0" y="0"> </tspan></text>
    <text class="cls-1" transform="translate(597.34 1317.64) rotate(34.66)"><tspan x="0" y="0">p</tspan></text>
    <text class="cls-1" transform="translate(613.58 1328.86) rotate(31.5)"><tspan x="0" y="0">o</tspan></text>
    <text class="cls-1" transform="translate(630.48 1339.07) rotate(28.83)"><tspan x="0" y="0">r</tspan></text>
    <text class="cls-1" transform="translate(639.22 1343.85) rotate(27.14)"><tspan x="0" y="0">t</tspan></text>
    <text class="cls-1" transform="translate(646.28 1347.47) rotate(25.45)"><tspan x="0" y="0">f</tspan></text>
    <text class="cls-1" transform="translate(654.06 1351.32) rotate(22.34)"><tspan x="0" y="0">o</tspan></text>
    <text class="cls-1" transform="translate(672.56 1358.71) rotate(19.08)"><tspan x="0" y="0">l</tspan></text>
    <text class="cls-1" transform="translate(679.38 1361.06) rotate(17.28)"><tspan x="0" y="0">i</tspan></text>
    <text class="cls-1" transform="translate(686.71 1363.52) rotate(13.62)"><tspan x="0" y="0">o</tspan></text>
    <text class="cls-1" transform="translate(706.38 1368.05) rotate(9.44)"><tspan x="0" y="0"> </tspan></text>
    <text class="cls-1" transform="translate(716.18 1370) rotate(4.15)"><tspan x="0" y="0">w</tspan></text>
    <text class="cls-1" transform="translate(742.64 1371.59) rotate(-2.83)"><tspan x="0" y="0">e</tspan></text>
    <text class="cls-1" transform="translate(761.38 1370.43) rotate(-6.85)"><tspan x="0" y="0">l</tspan></text>
    <text class="cls-1" transform="translate(769.07 1369.63) rotate(-10.52)"><tspan x="0" y="0">c</tspan></text>
    <text class="cls-1" transform="translate(786.44 1366.39) rotate(-15.88)"><tspan x="0" y="0">o</tspan></text>
    <text class="cls-1" transform="translate(806.32 1360.75) rotate(-21.79)"><tspan x="0" y="0">m</tspan></text>
    <text class="cls-1" transform="translate(829.65 1351.19) rotate(-26.79)"><tspan x="0" y="0">e</tspan></text>
    <text class="cls-1" transform="translate(846.03 1342.77) rotate(-29.57)"><tspan x="0" y="0"> </tspan></text>
    <text class="cls-1" transform="translate(853.8 1338.34) rotate(-31.1)"><tspan x="0" y="0">t</tspan></text>
    <text class="cls-1" transform="translate(860.5 1334.43) rotate(-33.48)"><tspan x="0" y="0">o</tspan></text>
    <text class="cls-1" transform="translate(876.8 1323.5) rotate(-35.72)"><tspan x="0" y="0"> </tspan></text>
    <text class="cls-1" transform="translate(884.32 1318.26) rotate(-38.07)"><tspan x="0" y="0">m</tspan></text>
    <text class="cls-1" transform="translate(903.56 1303.04) rotate(-40.57)"><tspan x="0" y="0">y</tspan></text>
    <text class="cls-1" transform="translate(915.68 1292.6) rotate(-41.92)"><tspan x="0" y="0"> </tspan></text>
    <text class="cls-1" transform="translate(922.35 1286.69) rotate(-43.31)"><tspan x="0" y="0">p</tspan></text>
    <text class="cls-1" transform="translate(936.05 1273.77) rotate(-44.97)"><tspan x="0" y="0">o</tspan></text>
    <text class="cls-1" transform="translate(949.38 1260.38) rotate(-46.07)"><tspan x="0" y="0">r</tspan></text>
    <text class="cls-1" transform="translate(955.94 1253.57) rotate(-46.66)"><tspan x="0" y="0">t</tspan></text>
    <text class="cls-1" transform="translate(961.01 1248.19) rotate(-47.19)"><tspan x="0" y="0">f</tspan></text>
    <text class="cls-1" transform="translate(966.31 1242.53) rotate(-48.04)"><tspan x="0" y="0">o</tspan></text>
    <text class="cls-1" transform="translate(978.94 1228.43) rotate(-48.77)"><tspan x="0" y="0">l</tspan></text>
    <text class="cls-1" transform="translate(983.35 1223.39) rotate(-49.13)"><tspan x="0" y="0">i</tspan></text>
    <text class="cls-1" transform="translate(987.73 1218.38) rotate(-49.77)"><tspan x="0" y="0">o</tspan></text>
    <text class="cls-1" transform="translate(999.94 1203.9) rotate(-50.4)"><tspan x="0" y="0"> </tspan></text>
    <text class="cls-1" transform="translate(1005.38 1197.4) rotate(-51.07)"><tspan x="0" y="0">w</tspan></text>
    <text class="cls-1" transform="translate(1020.74 1178.34) rotate(-51.82)"><tspan x="0" y="0">e</tspan></text>
    <text class="cls-1" transform="translate(1031.62 1164.47) rotate(-52.2)"><tspan x="0" y="0">l</tspan></text>
    <text class="cls-1" transform="translate(1035.74 1159.18) rotate(-52.53)"><tspan x="0" y="0">c</tspan></text>
    <text class="cls-1" transform="translate(1045.55 1146.39) rotate(-52.97)"><tspan x="0" y="0">o</tspan></text>
    <text class="cls-1" transform="translate(1056.98 1131.25) rotate(-53.42)"><tspan x="0" y="0">m</tspan></text>
    <text class="cls-1" transform="translate(1071.15 1112.13) rotate(-53.77)"><tspan x="0" y="0">e</tspan></text>
    <text class="cls-1" transform="translate(1081.59 1097.88) rotate(-53.96)"><tspan x="0" y="0"> </tspan></text>
    <text class="cls-1" transform="translate(1086.59 1091.01) rotate(-54.05)"><tspan x="0" y="0">t</tspan></text>
    <text class="cls-1" transform="translate(1090.75 1085.28) rotate(-54.19)"><tspan x="0" y="0">o</tspan></text>
    <text class="cls-1" transform="translate(1101.87 1069.85) rotate(-54.3)"><tspan x="0" y="0"> </tspan></text>
    <text class="cls-1" transform="translate(1106.84 1062.94) rotate(-54.4)"><tspan x="0" y="0">m</tspan></text>
    <text class="cls-1" transform="translate(1120.72 1043.55) rotate(-54.47)"><tspan x="0" y="0">y</tspan></text>
    <text class="cls-1" transform="translate(1129.81 1030.81) rotate(-54.49)"><tspan x="0" y="0"> </tspan></text>
    <text class="cls-1" transform="translate(1134.76 1023.87) rotate(-54.48)"><tspan x="0" y="0">p</tspan></text>
    <text class="cls-1" transform="translate(1145.73 1008.51) rotate(-54.42)"><tspan x="0" y="0">o</tspan></text>
    <text class="cls-1" transform="translate(1156.79 993.05) rotate(-54.35)"><tspan x="0" y="0">r</tspan></text>
    <text class="cls-1" transform="translate(1162.34 985.32) rotate(-54.29)"><tspan x="0" y="0">t</tspan></text>
    <text class="cls-1" transform="translate(1166.68 979.28) rotate(-54.23)"><tspan x="0" y="0">f</tspan></text>
    <text class="cls-1" transform="translate(1171.24 972.94) rotate(-54.11)"><tspan x="0" y="0">o</tspan></text>
    <text class="cls-1" transform="translate(1182.39 957.53) rotate(-53.97)"><tspan x="0" y="0">l</tspan></text>
    <text class="cls-1" transform="translate(1186.35 952.09) rotate(-53.89)"><tspan x="0" y="0">i</tspan></text>
    <text class="cls-1" transform="translate(1190.28 946.69) rotate(-53.71)"><tspan x="0" y="0">o</tspan></text>
    <text class="cls-1" transform="translate(1201.54 931.37) rotate(-53.5)"><tspan x="0" y="0"> </tspan></text>
    <text class="cls-1" transform="translate(1206.57 924.54) rotate(-53.21)"><tspan x="0" y="0">w</tspan></text>
    <text class="cls-1" transform="translate(1221.27 904.88) rotate(-52.79)"><tspan x="0" y="0">e</tspan></text>
    <text class="cls-1" transform="translate(1231.95 890.85) rotate(-52.51)"><tspan x="0" y="0">l</tspan></text>
    <text class="cls-1" transform="translate(1236.01 885.54) rotate(-52.24)"><tspan x="0" y="0">c</tspan></text>
    <text class="cls-1" transform="translate(1245.87 872.79) rotate(-51.77)"><tspan x="0" y="0">o</tspan></text>
    <text class="cls-1" transform="translate(1257.59 857.89) rotate(-51.13)"><tspan x="0" y="0">m</tspan></text>
    <text class="cls-1" transform="translate(1272.52 839.4) rotate(-50.45)"><tspan x="0" y="0">e</tspan></text>
    <text class="cls-1" transform="translate(1283.75 825.82) rotate(-49.97)"><tspan x="0" y="0"> </tspan></text>
    <text class="cls-1" transform="translate(1289.22 819.31) rotate(-49.68)"><tspan x="0" y="0">t</tspan></text>
    <text class="cls-1" transform="translate(1293.75 813.93) rotate(-49.15)"><tspan x="0" y="0">o</tspan></text>
    <text class="cls-1" transform="translate(1306.17 799.61) rotate(-48.57)"><tspan x="0" y="0"> </tspan></text>
    <text class="cls-1" transform="translate(1311.7 793.26) rotate(-47.83)"><tspan x="0" y="0">m</tspan></text>
    <text class="cls-1" transform="translate(1327.67 775.68) rotate(-46.85)"><tspan x="0" y="0">y</tspan></text>
    <text class="cls-1" transform="translate(1338.34 764.33) rotate(-46.21)"><tspan x="0" y="0"> </tspan></text>
    <text class="cls-1" transform="translate(1344.16 758.2) rotate(-45.44)"><tspan x="0" y="0">p</tspan></text>
    <text class="cls-1" transform="translate(1357.31 744.85) rotate(-44.29)"><tspan x="0" y="0">o</tspan></text>
    <text class="cls-1" transform="translate(1370.88 731.66) rotate(-43.37)"><tspan x="0" y="0">r</tspan></text>
    <text class="cls-1" transform="translate(1377.75 725.18) rotate(-42.8)"><tspan x="0" y="0">t</tspan></text>
    <text class="cls-1" transform="translate(1383.17 720.15) rotate(-42.25)"><tspan x="0" y="0">f</tspan></text>
    <text class="cls-1" transform="translate(1388.86 714.92) rotate(-41.27)"><tspan x="0" y="0">o</tspan></text>
    <text class="cls-1" transform="translate(1403.11 702.48) rotate(-40.27)"><tspan x="0" y="0">l</tspan></text>
    <text class="cls-1" transform="translate(1408.19 698.17) rotate(-39.72)"><tspan x="0" y="0">i</tspan></text>
    <text class="cls-1" transform="translate(1413.25 693.89) rotate(-38.64)"><tspan x="0" y="0">o</tspan></text>
    <text class="cls-1" transform="translate(1428.03 682.15) rotate(-37.42)"><tspan x="0" y="0"> </tspan></text>
    <text class="cls-1" transform="translate(1434.6 676.98) rotate(-35.86)"><tspan x="0" y="0">w</tspan></text>
    <text class="cls-1" transform="translate(1454.36 662.76) rotate(-33.72)"><tspan x="0" y="0">e</tspan></text>
    <text class="cls-1" transform="translate(1468.98 653.07) rotate(-32.41)"><tspan x="0" y="0">l</tspan></text>
    <text class="cls-1" transform="translate(1474.51 649.5) rotate(-31.12)"><tspan x="0" y="0">c</tspan></text>
    <text class="cls-1" transform="translate(1488.13 641.24) rotate(-29.05)"><tspan x="0" y="0">o</tspan></text>
    <text class="cls-1" transform="translate(1504.48 632.08) rotate(-26.35)"><tspan x="0" y="0">m</tspan></text>
    <text class="cls-1" transform="translate(1525.61 621.68) rotate(-23.57)"><tspan x="0" y="0">e</tspan></text>
    <text class="cls-1" transform="translate(1541.64 614.76) rotate(-21.73)"><tspan x="0" y="0"> </tspan></text>
    <text class="cls-1" transform="translate(1549.46 611.65) rotate(-20.61)"><tspan x="0" y="0">t</tspan></text>
    <text class="cls-1" transform="translate(1555.86 609.13) rotate(-18.68)"><tspan x="0" y="0">o</tspan></text>
    <text class="cls-1" transform="translate(1573.69 603.2) rotate(-16.6)"><tspan x="0" y="0"> </tspan></text>
    <text class="cls-1" transform="translate(1581.55 600.67) rotate(-14.09)"><tspan x="0" y="0">m</tspan></text>
    <text class="cls-1" transform="translate(1604.39 595.05) rotate(-10.95)"><tspan x="0" y="0">y</tspan></text>
    <text class="cls-1" transform="translate(1619.56 592.17) rotate(-9.01)"><tspan x="0" y="0"> </tspan></text>
    <text class="cls-1" transform="translate(1627.71 590.77) rotate(-6.79)"><tspan x="0" y="0">p</tspan></text>
    <text class="cls-1" transform="translate(1646.12 588.56) rotate(-3.72)"><tspan x="0" y="0">o</tspan></text>
    <text class="cls-1" transform="translate(1664.87 587.44) rotate(-1.43)"><tspan x="0" y="0">r</tspan></text>
    <text class="cls-1" transform="translate(1674.24 587.21) rotate(-.1)"><tspan x="0" y="0">t</tspan></text>
    <text class="cls-1" transform="translate(1681.55 587.2) rotate(1.14)"><tspan x="0" y="0">f</tspan></text>
    <text class="cls-1" transform="translate(1689.18 587.25) rotate(3.24)"><tspan x="0" y="0">o</tspan></text>
    <text class="cls-1" transform="translate(1707.93 588.41) rotate(5.22)"><tspan x="0" y="0">l</tspan></text>
    <text class="cls-1" transform="translate(1714.54 589.02) rotate(6.24)"><tspan x="0" y="0">i</tspan></text>
    <text class="cls-1" transform="translate(1721.02 589.62) rotate(8.14)"><tspan x="0" y="0">o</tspan></text>
    <text class="cls-1" transform="translate(1739.64 592.37) rotate(10.13)"><tspan x="0" y="0"> </tspan></text>
  </g>
</svg>