<?xml version="1.0" encoding="UTF-8"?>
<svg id="Layer_2" data-name="Layer 2" xmlns="http://www.w3.org/2000/svg" viewBox="0 0 55.07 55.07">
  <defs>
    <style>
      .cls-1 {
        fill: #ed1c24;
        stroke-width: 0px;
      }
    </style>
  </defs>
  <g id="Socials">
    <path class="cls-1" d="M23.72,0c2.49,0,4.97,0,7.46,0,.16.11.31.28.49.31,3.27.48,6.36,1.51,9.22,3.15,7.7,4.44,12.33,11.04,13.86,19.81.03.16.21.3.32.45v7.46c-.11.16-.28.31-.31.49-.48,3.27-1.51,6.37-3.16,9.22-4.44,7.69-11.04,12.33-19.8,13.86-.16.03-.3.21-.45.32h-.51v-19.17h7.48c.51-2.8,1.02-5.55,1.54-8.39h-8.89c0-1.58-.13-3.1.03-4.6.31-2.87,1.84-4.25,4.72-4.44.93-.06,1.86-.03,2.79-.04.58,0,1.16,0,1.76,0v-7.57c-3.42-.69-6.8-.95-10.21-.29-4.65.9-7.64,3.6-8.65,8.26-.37,1.72-.43,3.52-.55,5.29-.08,1.12-.01,2.24-.01,3.45h-5.55v8.36h5.55v18.27c-1.64-.57-3.37-.97-4.92-1.73C7.22,48.21,1.99,41.29.32,31.71c-.02-.14-.21-.25-.32-.37,0-2.49,0-4.97,0-7.46.11-.19.29-.37.32-.57.39-2.58,1.1-5.07,2.26-7.41C6.87,7.23,13.78,1.98,23.35.32c.14-.02.25-.21.37-.32Z"/>
  </g>
</svg>