<?xml version="1.0" encoding="UTF-8"?>
<svg id="Layer_2" data-name="Layer 2" xmlns="http://www.w3.org/2000/svg" viewBox="0 0 53.18 53.11">
  <defs>
    <style>
      .cls-1 {
        fill: #ed1c24;
        stroke-width: 0px;
      }
    </style>
  </defs>
  <g id="Socials">
    <g>
      <path class="cls-1" d="M53.18,27.17c-.11,3.81-.13,7.62-.34,11.42-.22,4.06-1.57,7.68-4.66,10.5-2.38,2.18-5.23,3.31-8.38,3.62-2.49.25-5,.34-7.5.36-4.67.04-9.34.05-14-.06-2.27-.05-4.59-.15-6.8-.64-6.35-1.4-10.36-5.95-11.09-12.45-.29-2.58-.35-5.2-.38-7.81-.05-4.63-.01-9.25.05-13.88.03-2.56.09-5.14.84-7.63C2.62,4.88,6.51,1.51,12.33.56,15.15.1,18.05.08,20.92.03c4.63-.07,9.25-.02,13.88.04,2.67.04,5.34.1,7.93.91,5.61,1.77,8.89,5.64,9.81,11.36.46,2.88.43,5.84.54,8.77.08,2.02.01,4.04.01,6.05h.09ZM48.38,26.58s-.1,0-.15,0c0-2.69.05-5.38-.02-8.07-.05-1.83-.11-3.68-.42-5.48-.64-3.78-2.78-6.38-6.54-7.44-1.17-.33-2.4-.55-3.61-.57-5.95-.11-11.9-.16-17.85-.17-2.01,0-4.04.11-6.04.33-4.63.5-7.74,3.35-8.47,7.96-.37,2.34-.42,4.75-.45,7.12-.06,4.69-.03,9.38.03,14.06.03,1.93.11,3.88.43,5.78.65,3.8,2.83,6.39,6.61,7.45.97.27,1.99.46,3,.51,2.73.13,5.46.22,8.19.21,5.09-.02,10.19-.07,15.28-.23,2.25-.07,4.38-.72,6.18-2.19,2.37-1.93,3.32-4.56,3.47-7.48.2-3.93.24-7.86.35-11.79Z"/>
      <path class="cls-1" d="M40.19,26.55c-.02,7.59-6.11,13.65-13.72,13.64-7.48,0-13.58-6.15-13.56-13.67.02-7.55,6.16-13.66,13.68-13.62,7.54.04,13.62,6.15,13.6,13.64ZM35.37,26.55c0-4.86-3.93-8.82-8.76-8.82-4.91,0-8.88,3.92-8.88,8.76,0,5.02,3.92,8.89,9,8.88,4.71,0,8.64-4.02,8.64-8.82Z"/>
      <path class="cls-1" d="M40.69,15.58c-1.77,0-3.17-1.4-3.17-3.19,0-1.77,1.4-3.19,3.18-3.19,1.8,0,3.23,1.43,3.21,3.23-.01,1.77-1.43,3.16-3.21,3.16Z"/>
    </g>
  </g>
</svg>