<?xml version="1.0" encoding="UTF-8"?>
<svg id="Layer_2" data-name="Layer 2" xmlns="http://www.w3.org/2000/svg" viewBox="0 0 48.35 48.35">
  <defs>
    <style>
      .cls-1 {
        fill: #ed1c24;
        stroke-width: 0px;
      }
    </style>
  </defs>
  <g id="Socials">
    <path class="cls-1" d="M43.6,48.35H4.72s-.05-.04-.08-.05c-.33-.08-.68-.13-1-.25-2.04-.77-3.25-2.23-3.59-4.39,0-.03-.03-.05-.04-.08,0-12.94,0-25.87,0-38.81.02-.03.04-.05.04-.08.02-.12.03-.24.06-.36C.4,2.92,1.13,1.79,2.32.96,3.03.46,3.82.16,4.69.04c.03,0,.05-.03.08-.04,12.92,0,25.84,0,38.76,0,.02.02.03.04.05.04.05,0,.11,0,.16.01,1.74.29,3.05,1.19,3.93,2.72.35.61.57,1.28.63,1.98,0,.02.03.04.04.05v38.72s-.04.03-.04.05c-.02.15-.03.3-.06.44-.2.98-.63,1.84-1.31,2.57-.88.96-1.97,1.53-3.26,1.7-.03,0-.05.03-.07.05ZM26.16,21.44s-.01,0-.02,0v-3.07h-6.91v23.26h6.9v-.16c0-3.98,0-7.96,0-11.95,0-.54.02-1.08.12-1.61.1-.53.25-1.05.49-1.54.43-.87,1.08-1.51,1.99-1.86.43-.17.87-.25,1.32-.29.42-.04.85-.03,1.26.04,1.18.19,2.02.85,2.54,1.92.35.73.49,1.51.55,2.31.03.38.04.77.04,1.15,0,3.94,0,7.88,0,11.82v.17h7.17c0-.06,0-.11,0-.17,0-4.63,0-9.26,0-13.89,0-.78,0-1.57-.11-2.35-.05-.35-.09-.7-.15-1.04-.12-.63-.31-1.25-.56-1.85-.8-1.9-2.13-3.27-4.06-4.05-.69-.28-1.4-.46-2.13-.53-.3-.03-.6-.08-.9-.09-.42-.01-.85,0-1.27.03-.42.03-.84.09-1.25.18-1.36.3-2.56.94-3.6,1.87-.56.5-1.04,1.07-1.44,1.71ZM7.42,18.36v23.27h7.19v-23.27h-7.19ZM15.23,10.98c.07-2.04-1.68-4.4-4.51-4.25-1.07.05-1.99.47-2.73,1.23-.95.96-1.37,2.13-1.25,3.48.1,1.01.51,1.89,1.23,2.6.93.92,2.06,1.35,3.37,1.25,2.04-.15,3.93-1.91,3.9-4.31Z"/>
  </g>
</svg>